<mxfile host="app.diagrams.net" agent="Mozilla/5.0 (Windows NT 10.0; Win64; x64) AppleWebKit/537.36 (KHTML, like Gecko) Chrome/118.0.0.0 Safari/537.36" version="28.1.1">
  <diagram name="第 1 页" id="WlIzskmG9pI8DjSCx0WZ">
    <mxGraphModel dx="1590" dy="773" grid="1" gridSize="10" guides="1" tooltips="1" connect="1" arrows="1" fold="1" page="1" pageScale="1" pageWidth="827" pageHeight="1169" math="0" shadow="0">
      <root>
        <mxCell id="0" />
        <mxCell id="1" parent="0" />
        <mxCell id="_a-eD0vN7kBclNBHNNr2-69" value="" style="group" parent="1" vertex="1" connectable="0">
          <mxGeometry x="140" y="120" width="920" height="600" as="geometry" />
        </mxCell>
        <mxCell id="_a-eD0vN7kBclNBHNNr2-3" style="edgeStyle=orthogonalEdgeStyle;rounded=0;orthogonalLoop=1;jettySize=auto;html=1;entryX=0.5;entryY=0;entryDx=0;entryDy=0;" parent="_a-eD0vN7kBclNBHNNr2-69" source="_a-eD0vN7kBclNBHNNr2-1" target="_a-eD0vN7kBclNBHNNr2-2" edge="1">
          <mxGeometry relative="1" as="geometry" />
        </mxCell>
        <mxCell id="_a-eD0vN7kBclNBHNNr2-1" value="Feign Client Interface&lt;br&gt;@FeignClient" style="rounded=1;whiteSpace=wrap;html=1;fillColor=#CCFFCC;shadow=1;" parent="_a-eD0vN7kBclNBHNNr2-69" vertex="1">
          <mxGeometry x="385" width="140" height="60" as="geometry" />
        </mxCell>
        <mxCell id="_a-eD0vN7kBclNBHNNr2-5" style="edgeStyle=orthogonalEdgeStyle;rounded=0;orthogonalLoop=1;jettySize=auto;html=1;entryX=0.5;entryY=0;entryDx=0;entryDy=0;" parent="_a-eD0vN7kBclNBHNNr2-69" source="_a-eD0vN7kBclNBHNNr2-2" target="_a-eD0vN7kBclNBHNNr2-4" edge="1">
          <mxGeometry relative="1" as="geometry" />
        </mxCell>
        <mxCell id="_a-eD0vN7kBclNBHNNr2-2" value="OpenFeign" style="ellipse;whiteSpace=wrap;html=1;aspect=fixed;fillColor=#E6FFCC;shadow=1;" parent="_a-eD0vN7kBclNBHNNr2-69" vertex="1">
          <mxGeometry x="415" y="100" width="80" height="80" as="geometry" />
        </mxCell>
        <mxCell id="_a-eD0vN7kBclNBHNNr2-8" style="edgeStyle=orthogonalEdgeStyle;rounded=0;orthogonalLoop=1;jettySize=auto;html=1;entryX=0.5;entryY=0;entryDx=0;entryDy=0;exitX=0.5;exitY=1;exitDx=0;exitDy=0;" parent="_a-eD0vN7kBclNBHNNr2-69" source="_a-eD0vN7kBclNBHNNr2-4" target="_a-eD0vN7kBclNBHNNr2-7" edge="1">
          <mxGeometry relative="1" as="geometry">
            <Array as="points">
              <mxPoint x="455" y="330" />
              <mxPoint x="303" y="330" />
              <mxPoint x="303" y="360" />
            </Array>
          </mxGeometry>
        </mxCell>
        <mxCell id="_a-eD0vN7kBclNBHNNr2-46" style="edgeStyle=orthogonalEdgeStyle;rounded=0;orthogonalLoop=1;jettySize=auto;html=1;entryX=0.5;entryY=0;entryDx=0;entryDy=0;" parent="_a-eD0vN7kBclNBHNNr2-69" source="_a-eD0vN7kBclNBHNNr2-4" target="_a-eD0vN7kBclNBHNNr2-45" edge="1">
          <mxGeometry relative="1" as="geometry" />
        </mxCell>
        <mxCell id="_a-eD0vN7kBclNBHNNr2-66" style="edgeStyle=orthogonalEdgeStyle;rounded=0;orthogonalLoop=1;jettySize=auto;html=1;entryX=0.5;entryY=0;entryDx=0;entryDy=0;" parent="_a-eD0vN7kBclNBHNNr2-69" source="_a-eD0vN7kBclNBHNNr2-4" target="_a-eD0vN7kBclNBHNNr2-22" edge="1">
          <mxGeometry relative="1" as="geometry" />
        </mxCell>
        <mxCell id="_a-eD0vN7kBclNBHNNr2-68" style="edgeStyle=orthogonalEdgeStyle;rounded=0;orthogonalLoop=1;jettySize=auto;html=1;entryX=0.5;entryY=0;entryDx=0;entryDy=0;exitX=0.5;exitY=1;exitDx=0;exitDy=0;" parent="_a-eD0vN7kBclNBHNNr2-69" source="_a-eD0vN7kBclNBHNNr2-4" target="_a-eD0vN7kBclNBHNNr2-16" edge="1">
          <mxGeometry relative="1" as="geometry">
            <Array as="points">
              <mxPoint x="455" y="330" />
              <mxPoint x="610" y="330" />
            </Array>
          </mxGeometry>
        </mxCell>
        <mxCell id="_a-eD0vN7kBclNBHNNr2-4" value="JDK Dynamic&lt;br&gt;Proxy" style="rounded=1;whiteSpace=wrap;html=1;fillColor=#FFFFCC;shadow=1;" parent="_a-eD0vN7kBclNBHNNr2-69" vertex="1">
          <mxGeometry x="400" y="230" width="110" height="60" as="geometry" />
        </mxCell>
        <mxCell id="_a-eD0vN7kBclNBHNNr2-6" value="1、启动时生成动态代理" style="text;strokeColor=none;align=center;fillColor=none;html=1;verticalAlign=middle;whiteSpace=wrap;rounded=0;" parent="_a-eD0vN7kBclNBHNNr2-69" vertex="1">
          <mxGeometry x="322.5" y="190" width="130" height="20" as="geometry" />
        </mxCell>
        <mxCell id="_a-eD0vN7kBclNBHNNr2-48" style="edgeStyle=orthogonalEdgeStyle;rounded=0;orthogonalLoop=1;jettySize=auto;html=1;entryX=0.5;entryY=0;entryDx=0;entryDy=0;" parent="_a-eD0vN7kBclNBHNNr2-69" source="_a-eD0vN7kBclNBHNNr2-7" target="_a-eD0vN7kBclNBHNNr2-10" edge="1">
          <mxGeometry relative="1" as="geometry" />
        </mxCell>
        <mxCell id="_a-eD0vN7kBclNBHNNr2-49" style="edgeStyle=orthogonalEdgeStyle;rounded=0;orthogonalLoop=1;jettySize=auto;html=1;" parent="_a-eD0vN7kBclNBHNNr2-69" source="_a-eD0vN7kBclNBHNNr2-7" target="_a-eD0vN7kBclNBHNNr2-13" edge="1">
          <mxGeometry relative="1" as="geometry" />
        </mxCell>
        <mxCell id="_a-eD0vN7kBclNBHNNr2-7" value="Spring Cloud&lt;br&gt;LoadBalancer" style="rounded=1;whiteSpace=wrap;html=1;fillColor=#E6FFCC;shadow=1;" parent="_a-eD0vN7kBclNBHNNr2-69" vertex="1">
          <mxGeometry x="242.5" y="360" width="120" height="60" as="geometry" />
        </mxCell>
        <mxCell id="_a-eD0vN7kBclNBHNNr2-9" value="2、调用方法" style="text;strokeColor=none;align=center;fillColor=none;html=1;verticalAlign=middle;whiteSpace=wrap;rounded=0;" parent="_a-eD0vN7kBclNBHNNr2-69" vertex="1">
          <mxGeometry x="310" y="310" width="75" height="20" as="geometry" />
        </mxCell>
        <mxCell id="_a-eD0vN7kBclNBHNNr2-10" value="Service Discovery&lt;br&gt;Nacos/Consul" style="rounded=1;whiteSpace=wrap;html=1;fillColor=#CCFFCC;shadow=1;" parent="_a-eD0vN7kBclNBHNNr2-69" vertex="1">
          <mxGeometry x="180" y="495" width="120" height="60" as="geometry" />
        </mxCell>
        <mxCell id="_a-eD0vN7kBclNBHNNr2-12" value="从本地缓存获取服务列表" style="text;strokeColor=none;align=center;fillColor=none;html=1;verticalAlign=middle;whiteSpace=wrap;rounded=0;" parent="_a-eD0vN7kBclNBHNNr2-69" vertex="1">
          <mxGeometry x="160" y="460" width="82.5" height="30" as="geometry" />
        </mxCell>
        <mxCell id="_a-eD0vN7kBclNBHNNr2-13" value="Server Instance" style="rounded=1;whiteSpace=wrap;html=1;fillColor=#CCFFCC;shadow=1;" parent="_a-eD0vN7kBclNBHNNr2-69" vertex="1">
          <mxGeometry x="310" y="495" width="120" height="60" as="geometry" />
        </mxCell>
        <mxCell id="_a-eD0vN7kBclNBHNNr2-15" value="根据规则选择具体实例" style="text;strokeColor=none;align=center;fillColor=none;html=1;verticalAlign=middle;whiteSpace=wrap;rounded=0;" parent="_a-eD0vN7kBclNBHNNr2-69" vertex="1">
          <mxGeometry x="315" y="435" width="130" height="20" as="geometry" />
        </mxCell>
        <mxCell id="_a-eD0vN7kBclNBHNNr2-20" style="edgeStyle=orthogonalEdgeStyle;rounded=0;orthogonalLoop=1;jettySize=auto;html=1;entryX=0.5;entryY=0;entryDx=0;entryDy=0;" parent="_a-eD0vN7kBclNBHNNr2-69" source="_a-eD0vN7kBclNBHNNr2-16" target="_a-eD0vN7kBclNBHNNr2-19" edge="1">
          <mxGeometry relative="1" as="geometry" />
        </mxCell>
        <mxCell id="_a-eD0vN7kBclNBHNNr2-16" value="Encoder" style="shape=hexagon;perimeter=hexagonPerimeter2;whiteSpace=wrap;html=1;fixedSize=1;fillColor=#E6FFCC;shadow=1;" parent="_a-eD0vN7kBclNBHNNr2-69" vertex="1">
          <mxGeometry x="560" y="365" width="100" height="70" as="geometry" />
        </mxCell>
        <mxCell id="_a-eD0vN7kBclNBHNNr2-18" value="3、编码请求序列化参数" style="text;strokeColor=none;align=center;fillColor=none;html=1;verticalAlign=middle;whiteSpace=wrap;rounded=0;" parent="_a-eD0vN7kBclNBHNNr2-69" vertex="1">
          <mxGeometry x="475" y="310" width="135" height="20" as="geometry" />
        </mxCell>
        <mxCell id="_a-eD0vN7kBclNBHNNr2-64" style="edgeStyle=orthogonalEdgeStyle;rounded=0;orthogonalLoop=1;jettySize=auto;html=1;entryX=1;entryY=0.5;entryDx=0;entryDy=0;" parent="_a-eD0vN7kBclNBHNNr2-69" source="_a-eD0vN7kBclNBHNNr2-19" target="_a-eD0vN7kBclNBHNNr2-13" edge="1">
          <mxGeometry relative="1" as="geometry" />
        </mxCell>
        <mxCell id="_a-eD0vN7kBclNBHNNr2-19" value="&lt;div&gt;Apache HttpClient&lt;/div&gt;&lt;div&gt;OkHttp&lt;/div&gt;" style="rounded=1;whiteSpace=wrap;html=1;fillColor=#CCFFE6;shadow=1;" parent="_a-eD0vN7kBclNBHNNr2-69" vertex="1">
          <mxGeometry x="542" y="490" width="136" height="70" as="geometry" />
        </mxCell>
        <mxCell id="_a-eD0vN7kBclNBHNNr2-21" value="构造最终HTTP请求" style="text;strokeColor=none;align=center;fillColor=none;html=1;verticalAlign=middle;whiteSpace=wrap;rounded=0;" parent="_a-eD0vN7kBclNBHNNr2-69" vertex="1">
          <mxGeometry x="550" y="447.5" width="60" height="30" as="geometry" />
        </mxCell>
        <mxCell id="_a-eD0vN7kBclNBHNNr2-60" style="edgeStyle=orthogonalEdgeStyle;rounded=0;orthogonalLoop=1;jettySize=auto;html=1;entryX=1;entryY=0.5;entryDx=0;entryDy=0;" parent="_a-eD0vN7kBclNBHNNr2-69" source="_a-eD0vN7kBclNBHNNr2-22" target="_a-eD0vN7kBclNBHNNr2-19" edge="1">
          <mxGeometry relative="1" as="geometry" />
        </mxCell>
        <mxCell id="_a-eD0vN7kBclNBHNNr2-22" value="CircuitBreaker&lt;br&gt;Sentinel/Resilience4j" style="rounded=1;whiteSpace=wrap;html=1;fillColor=#CCFFFF;shadow=1;" parent="_a-eD0vN7kBclNBHNNr2-69" vertex="1">
          <mxGeometry x="790" y="492.5" width="130" height="65" as="geometry" />
        </mxCell>
        <mxCell id="_a-eD0vN7kBclNBHNNr2-24" value="执行真实调用" style="text;strokeColor=none;align=center;fillColor=none;html=1;verticalAlign=middle;whiteSpace=wrap;rounded=0;" parent="_a-eD0vN7kBclNBHNNr2-69" vertex="1">
          <mxGeometry x="700" y="500" width="80" height="20" as="geometry" />
        </mxCell>
        <mxCell id="_a-eD0vN7kBclNBHNNr2-26" value="返回响应或异常" style="text;strokeColor=none;align=center;fillColor=none;html=1;verticalAlign=middle;whiteSpace=wrap;rounded=0;" parent="_a-eD0vN7kBclNBHNNr2-69" vertex="1">
          <mxGeometry x="717" y="580" width="90" height="20" as="geometry" />
        </mxCell>
        <mxCell id="_a-eD0vN7kBclNBHNNr2-28" value="熔断器包装调用" style="text;strokeColor=none;align=center;fillColor=none;html=1;verticalAlign=middle;whiteSpace=wrap;rounded=0;" parent="_a-eD0vN7kBclNBHNNr2-69" vertex="1">
          <mxGeometry x="760" y="240" width="90" height="20" as="geometry" />
        </mxCell>
        <mxCell id="_a-eD0vN7kBclNBHNNr2-31" value="决定是否熔断" style="text;strokeColor=none;align=center;fillColor=none;html=1;verticalAlign=middle;whiteSpace=wrap;rounded=0;" parent="_a-eD0vN7kBclNBHNNr2-69" vertex="1">
          <mxGeometry x="727" y="280" width="80" height="20" as="geometry" />
        </mxCell>
        <mxCell id="_a-eD0vN7kBclNBHNNr2-33" value="4、发送物理请求" style="text;strokeColor=none;align=center;fillColor=none;html=1;verticalAlign=middle;whiteSpace=wrap;rounded=0;" parent="_a-eD0vN7kBclNBHNNr2-69" vertex="1">
          <mxGeometry x="440" y="500" width="100" height="20" as="geometry" />
        </mxCell>
        <mxCell id="_a-eD0vN7kBclNBHNNr2-35" value="5、返回响应" style="text;strokeColor=none;align=center;fillColor=none;html=1;verticalAlign=middle;whiteSpace=wrap;rounded=0;" parent="_a-eD0vN7kBclNBHNNr2-69" vertex="1">
          <mxGeometry x="452.5" y="580" width="75" height="20" as="geometry" />
        </mxCell>
        <mxCell id="_a-eD0vN7kBclNBHNNr2-37" value="6、返回响应数据" style="text;strokeColor=none;align=center;fillColor=none;html=1;verticalAlign=middle;whiteSpace=wrap;rounded=0;" parent="_a-eD0vN7kBclNBHNNr2-69" vertex="1">
          <mxGeometry x="580" y="230" width="98" height="20" as="geometry" />
        </mxCell>
        <mxCell id="_a-eD0vN7kBclNBHNNr2-40" value="7、解码响应反序列化结果" style="text;strokeColor=none;align=center;fillColor=none;html=1;verticalAlign=middle;whiteSpace=wrap;rounded=0;" parent="_a-eD0vN7kBclNBHNNr2-69" vertex="1">
          <mxGeometry x="100" y="240" width="150" height="20" as="geometry" />
        </mxCell>
        <mxCell id="_a-eD0vN7kBclNBHNNr2-41" value="调用者" style="ellipse;whiteSpace=wrap;html=1;aspect=fixed;fillColor=#FFCCCC;shadow=1;" parent="_a-eD0vN7kBclNBHNNr2-69" vertex="1">
          <mxGeometry x="60" y="485" width="80" height="80" as="geometry" />
        </mxCell>
        <mxCell id="_a-eD0vN7kBclNBHNNr2-43" value="8、返回最终结果" style="text;strokeColor=none;align=center;fillColor=none;html=1;verticalAlign=middle;whiteSpace=wrap;rounded=0;" parent="_a-eD0vN7kBclNBHNNr2-69" vertex="1">
          <mxGeometry y="447.5" width="100" height="20" as="geometry" />
        </mxCell>
        <mxCell id="_a-eD0vN7kBclNBHNNr2-51" style="edgeStyle=orthogonalEdgeStyle;rounded=0;orthogonalLoop=1;jettySize=auto;html=1;entryX=0.5;entryY=0;entryDx=0;entryDy=0;" parent="_a-eD0vN7kBclNBHNNr2-69" source="_a-eD0vN7kBclNBHNNr2-45" target="_a-eD0vN7kBclNBHNNr2-41" edge="1">
          <mxGeometry relative="1" as="geometry" />
        </mxCell>
        <mxCell id="_a-eD0vN7kBclNBHNNr2-45" value="Decoder" style="shape=hexagon;perimeter=hexagonPerimeter2;whiteSpace=wrap;html=1;fixedSize=1;fillColor=#FFE6CC;shadow=1;" parent="_a-eD0vN7kBclNBHNNr2-69" vertex="1">
          <mxGeometry x="50" y="355" width="100" height="70" as="geometry" />
        </mxCell>
        <mxCell id="_a-eD0vN7kBclNBHNNr2-57" style="edgeStyle=orthogonalEdgeStyle;rounded=0;orthogonalLoop=1;jettySize=auto;html=1;entryX=1.003;entryY=0.833;entryDx=0;entryDy=0;entryPerimeter=0;exitX=0.152;exitY=-0.001;exitDx=0;exitDy=0;exitPerimeter=0;" parent="_a-eD0vN7kBclNBHNNr2-69" source="_a-eD0vN7kBclNBHNNr2-22" target="_a-eD0vN7kBclNBHNNr2-4" edge="1">
          <mxGeometry relative="1" as="geometry">
            <mxPoint x="810" y="490" as="sourcePoint" />
            <Array as="points">
              <mxPoint x="810" y="280" />
            </Array>
          </mxGeometry>
        </mxCell>
        <mxCell id="_a-eD0vN7kBclNBHNNr2-59" style="edgeStyle=orthogonalEdgeStyle;rounded=0;orthogonalLoop=1;jettySize=auto;html=1;entryX=1.003;entryY=0.35;entryDx=0;entryDy=0;entryPerimeter=0;exitX=1;exitY=0.25;exitDx=0;exitDy=0;" parent="_a-eD0vN7kBclNBHNNr2-69" source="_a-eD0vN7kBclNBHNNr2-19" target="_a-eD0vN7kBclNBHNNr2-4" edge="1">
          <mxGeometry relative="1" as="geometry">
            <Array as="points">
              <mxPoint x="690" y="508" />
              <mxPoint x="690" y="251" />
            </Array>
          </mxGeometry>
        </mxCell>
        <mxCell id="_a-eD0vN7kBclNBHNNr2-63" style="edgeStyle=orthogonalEdgeStyle;rounded=0;orthogonalLoop=1;jettySize=auto;html=1;entryX=0.56;entryY=1.016;entryDx=0;entryDy=0;entryPerimeter=0;exitX=0.826;exitY=1;exitDx=0;exitDy=0;exitPerimeter=0;" parent="_a-eD0vN7kBclNBHNNr2-69" source="_a-eD0vN7kBclNBHNNr2-19" target="_a-eD0vN7kBclNBHNNr2-22" edge="1">
          <mxGeometry relative="1" as="geometry">
            <Array as="points">
              <mxPoint x="654" y="580" />
              <mxPoint x="863" y="580" />
            </Array>
          </mxGeometry>
        </mxCell>
        <mxCell id="_a-eD0vN7kBclNBHNNr2-65" style="edgeStyle=orthogonalEdgeStyle;rounded=0;orthogonalLoop=1;jettySize=auto;html=1;entryX=0.415;entryY=0.991;entryDx=0;entryDy=0;entryPerimeter=0;exitX=0.5;exitY=1;exitDx=0;exitDy=0;" parent="_a-eD0vN7kBclNBHNNr2-69" source="_a-eD0vN7kBclNBHNNr2-13" target="_a-eD0vN7kBclNBHNNr2-19" edge="1">
          <mxGeometry relative="1" as="geometry">
            <Array as="points">
              <mxPoint x="390" y="580" />
              <mxPoint x="598" y="580" />
            </Array>
          </mxGeometry>
        </mxCell>
      </root>
    </mxGraphModel>
  </diagram>
</mxfile>
